<?xml version="1.0" encoding="UTF-8" standalone="no"?>
<svg
   width="19.5in"
   height="11in"
   viewBox="0 0 495.30001 279.40001"
   version="1.1"
   id="svg8"
   inkscape:version="1.4 (1:1.4+202410161351+e7c3feb100)"
   sodipodi:docname="icons_source_files.svg"
   xml:space="preserve"
   xmlns:inkscape="http://www.inkscape.org/namespaces/inkscape"
   xmlns:sodipodi="http://sodipodi.sourceforge.net/DTD/sodipodi-0.dtd"
   xmlns="http://www.w3.org/2000/svg"
   xmlns:svg="http://www.w3.org/2000/svg"
   xmlns:rdf="http://www.w3.org/1999/02/22-rdf-syntax-ns#"
   xmlns:cc="http://creativecommons.org/ns#"
   xmlns:dc="http://purl.org/dc/elements/1.1/"><defs
     id="defs2" /><sodipodi:namedview
     id="base"
     pagecolor="#ffffff"
     bordercolor="#666666"
     borderopacity="1.0"
     inkscape:pageopacity="1"
     inkscape:pageshadow="2"
     inkscape:zoom="0.65010683"
     inkscape:cx="848.32211"
     inkscape:cy="215.34922"
     inkscape:document-units="in"
     inkscape:current-layer="layer1"
     showgrid="true"
     units="in"
     inkscape:snap-grids="true"
     inkscape:window-width="1920"
     inkscape:window-height="1012"
     inkscape:window-x="0"
     inkscape:window-y="40"
     inkscape:window-maximized="1"
     inkscape:document-rotation="0"
     inkscape:pagecheckerboard="0"
     inkscape:showpageshadow="2"
     inkscape:deskcolor="#d1d1d1"
     inkscape:export-bgcolor="#ffffff00"><inkscape:grid
       type="xygrid"
       id="grid815"
       units="in"
       spacingx="3.1750001"
       spacingy="3.1750001"
       empspacing="4"
       originx="0"
       originy="0" /></sodipodi:namedview><metadata
     id="metadata5"><rdf:RDF><cc:Work
         rdf:about=""><dc:format>image/svg+xml</dc:format><dc:type
           rdf:resource="http://purl.org/dc/dcmitype/StillImage" /></cc:Work></rdf:RDF></metadata><g
     inkscape:label="Layer 1"
     inkscape:groupmode="layer"
     id="layer1"
     transform="translate(0,-4.8999833)"><circle
       style="fill:#3b424b;fill-opacity:1;stroke:none;stroke-width:3.81;stroke-linecap:round"
       id="circle19"
       cx="300.69894"
       cy="57.287483"
       r="26.987499"
       inkscape:export-filename="elec_eng.png"
       inkscape:export-xdpi="117.64708"
       inkscape:export-ydpi="117.64708" /><path
       id="path20"
       style="fill:#ffffff;fill-opacity:1;stroke-width:0.999999"
       d="m 301.26191,37.337508 c -0.99806,-0.01733 -2.29777,0.03979 -2.69218,0.13909 -0.43341,0.109132 -0.99002,0.567586 -1.18273,0.973668 -0.0729,0.153632 -0.22004,0.795552 -0.32675,1.426347 -0.10671,0.630793 -0.21878,1.16949 -0.24856,1.197538 -0.0296,0.02803 -0.33485,0.12869 -0.6782,0.22387 -1.19977,0.332474 -2.63148,0.929636 -3.62223,1.510298 -0.26558,0.15567 -0.51182,0.283127 -0.54733,0.283127 -0.0355,0 -0.45571,-0.283183 -0.93334,-0.628809 -1.0403,-0.752827 -1.40298,-0.92807 -1.92019,-0.929223 -0.71128,-0.0018 -1.09439,0.252423 -2.50701,1.66503 -1.39219,1.392185 -1.66634,1.798189 -1.66749,2.475735 -10e-4,0.545748 0.11993,0.80926 0.83704,1.819764 0.36289,0.511378 0.67572,0.971814 0.69547,1.023051 0.0196,0.05121 -0.0937,0.313697 -0.25185,0.583543 -0.60418,1.030846 -1.34684,2.843083 -1.59095,3.882328 -0.0532,0.225461 -0.1212,0.425287 -0.15226,0.444447 -0.0311,0.01916 -0.56351,0.121475 -1.18272,0.227162 -0.61921,0.105644 -1.21845,0.227759 -1.33169,0.271606 -0.3134,0.121348 -0.76048,0.546726 -0.93581,0.890541 -0.40031,0.784662 -0.40031,4.170112 0,4.954763 0.17541,0.343826 0.62241,0.769193 0.93581,0.890541 0.11324,0.04385 0.71248,0.165914 1.33169,0.271606 0.61921,0.105659 1.15166,0.208002 1.18272,0.227162 0.0311,0.01918 0.0994,0.218986 0.15226,0.444446 0.24411,1.039246 0.98677,2.852306 1.59095,3.883152 0.15831,0.269846 0.27076,0.534711 0.25021,0.58848 -0.0207,0.05382 -0.3038,0.467808 -0.62964,0.920171 -0.7181,0.996957 -0.89844,1.373388 -0.89959,1.885608 -0.002,0.718204 0.25412,1.101619 1.68067,2.517711 1.39953,1.3893 1.79479,1.655646 2.46092,1.656799 0.54574,0.0012 0.80925,-0.119994 1.81976,-0.837042 0.51137,-0.362874 0.97096,-0.675871 1.02224,-0.695477 0.0513,-0.01965 0.31411,0.09311 0.58353,0.25103 0.99766,0.584713 2.4258,1.181028 3.62883,1.514413 0.34335,0.09515 0.65303,0.199922 0.68807,0.232923 0.035,0.03302 0.14637,0.565372 0.24692,1.182723 0.21164,1.300217 0.25576,1.435087 0.59424,1.820587 0.34405,0.391846 0.7795,0.596148 1.4321,0.67161 0.75969,0.0879 3.27909,0.0312 3.73007,-0.08395 0.40399,-0.103143 1.00415,-0.573693 1.19013,-0.933339 0.0612,-0.118306 0.20226,-0.753039 0.31359,-1.409884 0.11117,-0.656836 0.22016,-1.223023 0.24198,-1.258445 0.0218,-0.03544 0.0898,-0.0642 0.15146,-0.0642 0.0616,0 0.57852,-0.153297 1.14817,-0.340743 1.05646,-0.347669 2.4231,-0.952479 3.1103,-1.375317 0.21041,-0.12947 0.41257,-0.235393 0.44857,-0.235393 0.0358,0 0.46546,0.286778 0.95472,0.637042 1.0666,0.763545 1.38994,0.92066 1.90373,0.921816 0.71128,0.0018 1.09439,-0.253236 2.507,-1.665854 1.4126,-1.412606 1.66744,-1.795717 1.66585,-2.507011 -0.001,-0.517194 -0.17722,-0.879859 -0.93004,-1.920176 -0.34566,-0.477617 -0.62881,-0.89779 -0.62881,-0.933339 0,-0.0355 0.12789,-0.282135 0.28396,-0.548151 0.60014,-1.024014 1.34349,-2.839675 1.58684,-3.875745 0.0532,-0.225459 0.1212,-0.425286 0.15226,-0.444446 0.0311,-0.01916 0.56351,-0.121475 1.18272,-0.227162 0.61923,-0.10566 1.21845,-0.227759 1.33169,-0.271606 0.31338,-0.121348 0.76047,-0.546713 0.93581,-0.890541 0.40029,-0.784649 0.40029,-4.170101 0,-4.954763 -0.17542,-0.343815 -0.62243,-0.769193 -0.93581,-0.890541 -0.11324,-0.04386 -0.71246,-0.165914 -1.33169,-0.271606 -0.61921,-0.105659 -1.15166,-0.208001 -1.18272,-0.227162 -0.0311,-0.01916 -0.0994,-0.218988 -0.15226,-0.444447 -0.2393,-1.018823 -0.99926,-2.87215 -1.59178,-3.883151 -0.15799,-0.269429 -0.26993,-0.533889 -0.24938,-0.587658 0.0207,-0.05382 0.30381,-0.467795 0.62962,-0.92017 0.71812,-0.996958 0.89843,-1.374209 0.89959,-1.886431 0.002,-0.711281 -0.25325,-1.094404 -1.66585,-2.507011 -1.41261,-1.412608 -1.79572,-1.667419 -2.507,-1.66503 -0.51379,0.0012 -0.83713,0.157438 -1.90373,0.920993 -0.48926,0.350253 -0.91801,0.63704 -0.95226,0.63704 -0.0342,0 -0.27926,-0.127464 -0.54486,-0.283128 -1.00421,-0.588542 -2.86095,-1.349111 -3.87656,-1.587665 -0.22547,-0.05299 -0.42533,-0.12122 -0.44445,-0.152262 -0.0191,-0.03101 -0.12152,-0.5635 -0.22716,-1.182724 -0.22354,-1.310139 -0.26713,-1.441006 -0.6033,-1.823879 -0.37432,-0.426319 -0.76326,-0.589985 -1.62059,-0.681485 -0.22103,-0.02357 -0.51998,-0.03703 -0.85268,-0.0428 z m -0.51686,6.660946 c 2.06274,0.01338 4.13224,0.506765 6.04366,1.479844 5.3403,2.718672 8.20899,8.833125 6.89468,14.697208 -1.14779,5.121166 -5.17939,9.099041 -10.28648,10.149856 -0.63504,0.130665 -2.62954,0.338922 -2.89302,0.302059 -0.0428,-0.0059 -0.43722,-0.03861 -0.87655,-0.07242 -3.99958,-0.30746 -7.72257,-2.490351 -9.97042,-5.846949 -4.46205,-6.662913 -2.08193,-15.694416 5.08808,-19.307937 1.88178,-0.948371 3.9373,-1.415091 6.00005,-1.401653 z" /><circle
       style="fill:#3b424b;fill-opacity:1;stroke:none;stroke-width:3.81;stroke-linecap:round"
       id="path1"
       cx="65.087502"
       cy="57.287483"
       r="26.987499"
       inkscape:export-filename="hardware.png"
       inkscape:export-xdpi="117.64706"
       inkscape:export-ydpi="117.64706" /><path
       id="rect2"
       style="fill:#ffffff;stroke-width:1;stroke-linecap:round"
       d="m 57.469187,37.562505 c -0.801296,-2.91e-4 -1.450903,0.649448 -1.450446,1.450743 v 3.986736 h -1.012097 c -2.221707,0 -4.056057,1.834348 -4.056057,4.056057 v 1.314462 h -3.987031 c -0.80072,3.54e-4 -1.449559,0.649722 -1.449266,1.45044 1.95e-4,0.800376 0.648892,1.449208 1.449266,1.449562 h 3.987031 v 4.718297 h -3.987031 c -0.80072,3.65e-4 -1.449559,0.649733 -1.449266,1.450452 3.56e-4,0.800262 0.649005,1.44891 1.449266,1.449264 h 3.987031 v 4.718298 h -3.987031 c -0.80072,3.65e-4 -1.449559,0.649733 -1.449266,1.450451 1.95e-4,0.800376 0.648892,1.449196 1.449266,1.449561 h 3.987031 v 0.711212 0.302062 c 0,2.221704 1.83435,4.054876 4.056057,4.054876 h 1.012097 v 3.988214 c 3.6e-4,0.800718 0.649727,1.449561 1.450446,1.449264 0.800374,-1.94e-4 1.449203,-0.648888 1.449561,-1.449264 v -3.988214 h 4.719482 v 3.988214 c 3.58e-4,0.800262 0.649007,1.44891 1.449265,1.449264 0.800258,-3.54e-4 1.448907,-0.649002 1.449267,-1.449264 v -3.988214 h 4.71948 v 3.988214 c 3.6e-4,0.800376 0.649187,1.44907 1.449561,1.449264 0.80072,2.97e-4 1.450088,-0.648546 1.450446,-1.449264 v -3.988214 h 1.012098 c 1.943995,0 3.591686,-1.403518 3.973168,-3.242775 0.05451,-0.262754 0.0829,-0.534391 0.0829,-0.812101 V 66.20447 h 3.987027 c 0.800262,-3.54e-4 1.44891,-0.649003 1.44927,-1.449264 -3.54e-4,-0.800262 -0.649008,-1.448922 -1.44927,-1.449276 h -3.987027 v -4.719474 h 3.987027 c 0.800262,-3.54e-4 1.44891,-0.649002 1.44927,-1.449264 4.57e-4,-0.800844 -0.648432,-1.450395 -1.44927,-1.450749 h -3.987027 v -4.718297 h 3.987027 c 0.800262,-3.54e-4 1.448916,-0.649003 1.44927,-1.449264 2.91e-4,-0.80073 -0.648546,-1.450098 -1.44927,-1.450452 h -3.987027 v -1.012389 c 0,-0.138861 -0.007,-0.276323 -0.02095,-0.411804 -0.02797,-0.270952 -0.08321,-0.534414 -0.162836,-0.787613 -0.517563,-1.645773 -2.067145,-2.85664 -3.872279,-2.85664 h -1.012098 v -3.986736 c 4.58e-4,-0.801295 -0.649149,-1.451034 -1.450446,-1.450743 -0.800951,1.94e-4 -1.450018,0.649791 -1.449561,1.450743 v 3.986736 h -4.71948 v -3.986736 c 4.56e-4,-0.800838 -0.648431,-1.450383 -1.449267,-1.450743 -0.800836,3.6e-4 -1.449723,0.649905 -1.449265,1.450743 v 3.986736 h -4.719482 v -3.986736 c 4.58e-4,-0.800952 -0.64861,-1.450549 -1.449561,-1.450743 z"
       sodipodi:nodetypes="cccssccccccccccccccccsscccccccccccccccssscccccccccccccccssssccccccccccccc" /><path
       style="fill:#3b424b;fill-opacity:1;stroke-width:0.999998"
       d="m 73.797774,67.954156 c -0.258295,-0.06167 -1.198849,-0.950916 -4.556651,-4.308083 l -4.231176,-4.230371 -0.349115,0.306524 c -0.402277,0.353205 -0.426816,0.473869 -0.147749,0.726423 0.394428,0.356955 0.687865,0.97959 0.629926,1.336624 -0.07351,0.452957 -0.374614,0.847045 -0.802248,1.04997 -0.308649,0.146462 -0.416664,0.153907 -0.788841,0.05436 l -0.431219,-0.115337 -1.318939,1.32821 c -1.027072,1.034292 -1.318935,1.384199 -1.318935,1.581214 0,0.178135 -0.177037,0.442748 -0.598264,0.894234 -0.861428,0.92329 -1.252246,1.184492 -1.772294,1.184492 -0.421847,0 -0.445795,-0.01814 -1.847051,-1.400054 -0.780814,-0.770031 -1.489577,-1.547403 -1.575036,-1.72749 -0.255633,-0.538707 -0.120377,-0.839735 0.800759,-1.782182 0.644137,-0.659042 0.90805,-0.863072 1.217011,-0.940871 0.322497,-0.08121 0.625249,-0.330548 1.658467,-1.365895 1.213109,-1.215614 1.259912,-1.277159 1.163707,-1.530211 -0.330805,-0.870072 0.279581,-1.780623 1.194636,-1.782115 0.404749,-8.45e-4 0.662836,0.132047 1.158219,0.595557 l 0.299351,0.280091 0.346773,-0.304474 c 0.190728,-0.167459 0.346777,-0.35315 0.346777,-0.412645 0,-0.05949 -0.45588,-0.565477 -1.013073,-1.124399 l -1.013073,-1.016223 -0.590273,0.243368 c -0.449646,0.185388 -0.761316,0.243878 -1.308197,0.245499 -1.082137,0.0034 -1.600182,-0.274058 -2.894059,-1.548929 -1.346747,-1.326971 -1.655556,-1.896019 -1.646931,-3.034829 0.0061,-0.818875 0.198155,-1.441428 0.477483,-1.548617 0.113658,-0.04361 0.530812,0.313015 1.513146,1.293599 0.74593,0.744592 1.399468,1.35381 1.45232,1.35381 0.05284,0 0.589462,-0.49478 1.192475,-1.09951 l 1.096394,-1.099506 -1.424735,-1.436193 c -1.369826,-1.380838 -1.418413,-1.443176 -1.260676,-1.617473 0.230032,-0.254184 0.95583,-0.44035 1.666745,-0.427517 0.97721,0.01764 1.581978,0.377558 2.903988,1.728258 0.926008,0.946105 1.139102,1.220816 1.320631,1.702476 0.286658,0.760619 0.245317,1.876818 -0.09495,2.563481 l -0.22675,0.457593 1.072568,1.072564 1.072564,1.072568 2.241446,-2.248077 c 2.239624,-2.246246 2.241496,-2.248473 2.306166,-2.743212 0.0356,-0.272326 0.114983,-0.558622 0.176413,-0.636215 0.211073,-0.266618 3.528428,-2.649677 3.688497,-2.649677 0.189854,0 1.966243,1.755001 1.914791,1.89174 -0.01949,0.0518 -0.616945,0.893685 -1.327682,1.870865 -1.337548,1.83897 -1.490671,1.980734 -2.139438,1.980734 -0.253292,0 -0.588698,0.295576 -2.522352,2.222842 -1.226622,1.222565 -2.230214,2.267322 -2.230214,2.321688 0,0.05436 1.835255,1.929343 4.078346,4.166621 2.982807,2.975074 4.129535,4.179953 4.268895,4.485382 0.532254,1.166528 -0.552671,2.423954 -1.828578,2.119318 z m 1.019463,-1.010601 c 0.385955,-0.438588 0.240723,-1.014765 -0.31422,-1.246632 -0.850537,-0.355377 -1.469241,0.655723 -0.806683,1.318287 0.243322,0.243317 0.341355,0.281344 0.598269,0.232043 0.16899,-0.03244 0.40418,-0.169091 0.522634,-0.303698 z m -14.261161,-3.071933 1.844116,-1.886874 -0.258675,-0.269995 c -0.14227,-0.1485 -0.30487,-0.269998 -0.361337,-0.269998 -0.05647,0 -0.94063,0.83879 -1.964804,1.86398 l -1.862138,1.863977 0.27762,0.289771 c 0.152688,0.159378 0.323403,0.29118 0.379363,0.292893 0.05596,0.0017 0.931597,-0.845977 1.945855,-1.883754 z m -1.413825,-1.421322 1.864285,-1.866124 -0.310189,-0.310189 -0.310189,-0.310189 -1.911848,1.910055 -1.911846,1.910058 0.255088,0.266254 c 0.140297,0.146442 0.301286,0.266258 0.357752,0.266258 0.05647,0 0.941596,-0.839757 1.966947,-1.866123 z m 8.518163,-6.504349 3.782614,-3.775807 0.504114,-0.06563 0.504113,-0.06563 1.147099,-1.55647 c 0.630901,-0.856058 1.147094,-1.594704 1.147094,-1.641434 0,-0.04674 -0.276118,-0.358628 -0.613596,-0.693106 l -0.613592,-0.60814 -0.3197,0.223675 c -1.620599,1.133844 -2.856813,2.120379 -2.896063,2.311141 -0.02472,0.120204 -0.06894,0.369483 -0.09826,0.553957 -0.04571,0.287682 -0.591073,0.873049 -3.833349,4.114545 l -3.780059,3.779148 0.594444,0.599774 c 0.326945,0.329877 0.616515,0.599774 0.643487,0.599774 0.027,0 1.751217,-1.699111 3.831658,-3.775802 z"
       id="path899" /><circle
       style="fill:#3b424b;fill-opacity:1;stroke:none;stroke-width:3.81;stroke-linecap:round"
       id="circle14"
       cx="143.8584"
       cy="57.287483"
       r="26.987499"
       inkscape:export-filename="firmware.png"
       inkscape:export-xdpi="117.64708"
       inkscape:export-ydpi="117.64708" /><path
       id="path14"
       style="fill:#ffffff;stroke-width:1;stroke-linecap:round"
       d="m 136.24009,37.562505 c -0.8013,-2.91e-4 -1.4509,0.649448 -1.45045,1.450743 v 3.986736 h -1.01209 c -2.22171,0 -4.05606,1.834348 -4.05606,4.056057 v 1.314462 h -3.98703 c -0.80072,3.54e-4 -1.44956,0.649722 -1.44927,1.45044 2e-4,0.800376 0.6489,1.449208 1.44927,1.449562 h 3.98703 v 4.718297 h -3.98703 c -0.80072,3.65e-4 -1.44956,0.649733 -1.44927,1.450452 3.6e-4,0.800262 0.64901,1.44891 1.44927,1.449264 h 3.98703 v 4.718298 h -3.98703 c -0.80072,3.65e-4 -1.44956,0.649733 -1.44927,1.450451 2e-4,0.800376 0.6489,1.449196 1.44927,1.449561 h 3.98703 v 0.711212 0.302062 c 0,2.221704 1.83435,4.054876 4.05606,4.054876 h 1.01209 v 3.988214 c 3.6e-4,0.800718 0.64973,1.449561 1.45045,1.449264 0.80037,-1.94e-4 1.4492,-0.648888 1.44956,-1.449264 v -3.988214 h 4.71948 v 3.988214 c 3.6e-4,0.800262 0.64901,1.44891 1.44927,1.449264 0.80026,-3.54e-4 1.44891,-0.649002 1.44927,-1.449264 v -3.988214 h 4.71948 v 3.988214 c 3.6e-4,0.800376 0.64918,1.44907 1.44956,1.449264 0.80072,2.97e-4 1.45008,-0.648546 1.45044,-1.449264 v -3.988214 h 1.0121 c 1.944,0 3.59169,-1.403518 3.97317,-3.242775 0.0545,-0.262754 0.0829,-0.534391 0.0829,-0.812101 V 66.20447 h 3.98703 c 0.80026,-3.54e-4 1.44891,-0.649003 1.44927,-1.449264 -3.6e-4,-0.800262 -0.64901,-1.448922 -1.44927,-1.449276 h -3.98703 v -4.719474 h 3.98703 c 0.80026,-3.54e-4 1.44891,-0.649002 1.44927,-1.449264 4.5e-4,-0.800844 -0.64844,-1.450395 -1.44927,-1.450749 h -3.98703 v -4.718297 h 3.98703 c 0.80026,-3.54e-4 1.44891,-0.649003 1.44927,-1.449264 2.9e-4,-0.80073 -0.64855,-1.450098 -1.44927,-1.450452 h -3.98703 v -1.012389 c 0,-0.138861 -0.007,-0.276323 -0.0209,-0.411804 -0.028,-0.270952 -0.0832,-0.534414 -0.16284,-0.787613 -0.51756,-1.645773 -2.06714,-2.85664 -3.87228,-2.85664 h -1.01209 v -3.986736 c 4.5e-4,-0.801295 -0.64915,-1.451034 -1.45045,-1.450743 -0.80095,1.94e-4 -1.45002,0.649791 -1.44956,1.450743 v 3.986736 h -4.71948 v -3.986736 c 4.5e-4,-0.800838 -0.64843,-1.450383 -1.44927,-1.450743 -0.80083,3.6e-4 -1.44972,0.649905 -1.44926,1.450743 v 3.986736 h -4.71949 v -3.986736 c 4.6e-4,-0.800952 -0.64861,-1.450549 -1.44956,-1.450743 z"
       sodipodi:nodetypes="cccssccccccccccccccccsscccccccccccccccssscccccccccccccccssssccccccccccccc" /><path
       id="path15"
       style="fill:#3b424b;fill-opacity:1;stroke:none;stroke-width:5.08;stroke-linecap:round;stroke-dasharray:none"
       inkscape:transform-center-x="-5.4279767e-06"
       inkscape:transform-center-y="1.4593075"
       d="m 140.00799,46.563846 v 12.691215 h -4.81469 l 8.66511,8.756055 8.6651,-8.756055 h -4.81469 V 46.563846 Z" /><circle
       style="fill:#3b424b;fill-opacity:1;stroke:none;stroke-width:3.81;stroke-linecap:round"
       id="circle18"
       cx="219.93491"
       cy="57.287483"
       r="26.987499"
       inkscape:export-filename="firmware_2.png"
       inkscape:export-xdpi="117.64708"
       inkscape:export-ydpi="117.64708" /><path
       id="path18"
       style="fill:#ffffff;stroke-width:1;stroke-linecap:round"
       d="m 212.3166,37.562505 c -0.8013,-2.91e-4 -1.4509,0.649448 -1.45045,1.450743 v 3.986736 h -1.01209 c -2.22171,0 -4.05606,1.834348 -4.05606,4.056057 v 1.314462 h -3.98703 c -0.80072,3.54e-4 -1.44956,0.649722 -1.44927,1.45044 2e-4,0.800376 0.6489,1.449208 1.44927,1.449562 h 3.98703 v 4.718297 h -3.98703 c -0.80072,3.65e-4 -1.44956,0.649733 -1.44927,1.450452 3.6e-4,0.800262 0.64901,1.44891 1.44927,1.449264 h 3.98703 v 4.718298 h -3.98703 c -0.80072,3.65e-4 -1.44956,0.649733 -1.44927,1.450451 2e-4,0.800376 0.6489,1.449196 1.44927,1.449561 h 3.98703 v 0.711212 0.302062 c 0,2.221704 1.83435,4.054876 4.05606,4.054876 h 1.01209 v 3.988214 c 3.6e-4,0.800718 0.64973,1.449561 1.45045,1.449264 0.80037,-1.94e-4 1.4492,-0.648888 1.44956,-1.449264 v -3.988214 h 4.71948 v 3.988214 c 3.6e-4,0.800262 0.64901,1.44891 1.44927,1.449264 0.80026,-3.54e-4 1.44891,-0.649002 1.44927,-1.449264 v -3.988214 h 4.71948 v 3.988214 c 3.6e-4,0.800376 0.64918,1.44907 1.44956,1.449264 0.80072,2.97e-4 1.45008,-0.648546 1.45044,-1.449264 v -3.988214 h 1.0121 c 1.944,0 3.59169,-1.403518 3.97317,-3.242775 0.0545,-0.262754 0.0829,-0.534391 0.0829,-0.812101 V 66.20447 h 3.98703 c 0.80026,-3.54e-4 1.44891,-0.649003 1.44927,-1.449264 -3.6e-4,-0.800262 -0.64901,-1.448922 -1.44927,-1.449276 h -3.98703 v -4.719474 h 3.98703 c 0.80026,-3.54e-4 1.44891,-0.649002 1.44927,-1.449264 4.5e-4,-0.800844 -0.64844,-1.450395 -1.44927,-1.450749 h -3.98703 v -4.718297 h 3.98703 c 0.80026,-3.54e-4 1.44891,-0.649003 1.44927,-1.449264 2.9e-4,-0.80073 -0.64855,-1.450098 -1.44927,-1.450452 h -3.98703 v -1.012389 c 0,-0.138861 -0.007,-0.276323 -0.0209,-0.411804 -0.028,-0.270952 -0.0832,-0.534414 -0.16284,-0.787613 -0.51756,-1.645773 -2.06714,-2.85664 -3.87228,-2.85664 h -1.01209 v -3.986736 c 4.5e-4,-0.801295 -0.64915,-1.451034 -1.45045,-1.450743 -0.80095,1.94e-4 -1.45002,0.649791 -1.44956,1.450743 v 3.986736 h -4.71948 v -3.986736 c 4.5e-4,-0.800838 -0.64843,-1.450383 -1.44927,-1.450743 -0.80083,3.6e-4 -1.44972,0.649905 -1.44926,1.450743 v 3.986736 h -4.71949 v -3.986736 c 4.6e-4,-0.800952 -0.64861,-1.450549 -1.44956,-1.450743 z"
       sodipodi:nodetypes="cccssccccccccccccccccsscccccccccccccccssscccccccccccccccssssccccccccccccc" /><text
       xml:space="preserve"
       style="font-weight:bold;font-size:12.9788px;line-height:0.95;font-family:Arial;-inkscape-font-specification:'Arial, Bold';text-align:center;letter-spacing:0px;word-spacing:0px;text-anchor:middle;fill:#3b424b;fill-opacity:1;stroke-width:0.264583"
       x="219.98245"
       y="55.707592"
       id="text15"><tspan
         sodipodi:role="line"
         id="tspan15"
         style="line-height:0.95;fill:#3b424b;fill-opacity:1;stroke-width:0.264583"
         x="219.98245"
         y="55.707592">010</tspan><tspan
         sodipodi:role="line"
         style="line-height:0.95;fill:#3b424b;fill-opacity:1;stroke-width:0.264583"
         x="219.98245"
         y="68.037453"
         id="tspan17">110</tspan></text><path
       style="fill:#000000;stroke-width:0.999999"
       d="m 299.78254,62.228136 c 1.44998,-1.57066 5.51363,-6.135476 5.49242,-6.169806 -0.0139,-0.02231 -0.88775,-0.04056 -1.94215,-0.04056 -1.90087,0 -1.91804,-7.25e-4 -2.03048,-0.106535 -0.0739,-0.06933 -0.11341,-0.16261 -0.11341,-0.267216 0,-0.105115 0.28128,-0.763579 0.81322,-1.903828 0.66504,-1.425479 0.80233,-1.756262 0.75346,-1.81515 -0.0503,-0.06063 -0.3106,-0.07201 -1.64845,-0.07201 h -1.58867 l -0.0757,0.134734 c -0.0417,0.07411 -0.62162,1.391519 -1.28881,2.927575 l -1.21307,2.792824 1.66255,0.02448 c 1.59113,0.02347 1.66564,0.02868 1.73419,0.122492 0.0394,0.0539 0.0837,0.146456 0.0986,0.205684 0.0168,0.0673 -0.24112,0.900103 -0.68808,2.220904 -0.39332,1.162271 -0.71513,2.165538 -0.71513,2.229482 0,0.111519 0.10814,0.2145 0.22866,0.217637 0.0314,7.25e-4 0.26581,-0.224504 0.52082,-0.500725 z"
       id="path25" /><path
       style="fill:#ffffff;fill-opacity:1;stroke-width:0.999999"
       d="m 297.8708,67.175739 c -0.72703,-0.26913 -1.09135,-0.745087 -1.13456,-1.482179 -0.026,-0.443271 0.0446,-0.691068 0.95284,-3.353357 0.53951,-1.581092 0.98091,-2.90675 0.98091,-2.945909 0,-0.04096 -0.83636,-0.07199 -1.97046,-0.07304 -2.04444,-0.0024 -2.44497,-0.04373 -2.78381,-0.290175 -0.32071,-0.233305 -0.5697,-0.783 -0.52164,-1.151657 0.0602,-0.46226 4.13023,-9.767618 4.39602,-10.050848 0.47577,-0.506959 0.56089,-0.519661 3.49413,-0.521069 1.69065,-8.88e-4 2.76652,0.02988 2.96541,0.08446 0.65763,0.180663 1.2062,1.053263 1.08188,1.720933 -0.0266,0.143247 -0.51806,1.272052 -1.09193,2.508487 -0.57391,1.236436 -1.04344,2.261419 -1.04344,2.277757 0,0.01642 1.15006,0.04061 2.55571,0.05401 2.81362,0.02676 2.82257,0.02825 3.2467,0.532307 0.39933,0.474573 0.45284,1.094118 0.13809,1.599046 -0.13602,0.218353 -8.40224,9.442738 -9.35765,10.442442 -0.23847,0.249515 -0.52737,0.502182 -0.64205,0.561475 -0.32539,0.168256 -0.93407,0.210218 -1.26616,0.08723 z"
       id="path24" /><circle
       style="fill:#3b424b;fill-opacity:1;stroke:none;stroke-width:3.81;stroke-linecap:round"
       id="circle25"
       cx="385.22726"
       cy="57.287483"
       r="26.987499"
       inkscape:export-filename="drilling.png"
       inkscape:export-xdpi="117.64708"
       inkscape:export-ydpi="117.64708" /><g
       id="g34"
       style="fill:#ffffff;stroke-width:4.38232"
       transform="matrix(0.22818963,0,0,0.22818963,351.11585,4.6238878)"><path
         style="fill:#ffffff;fill-opacity:1;stroke-width:4.38232"
         d="m 169.33326,197.78167 c 0.368,-0.36805 0.76629,-1.02289 0.88507,-1.45521 0.19677,-0.71609 -4.33543,-53.43614 -4.81226,-55.97785 -0.10028,-0.53454 -0.52441,-1.27301 -0.98406,-1.71339 l -0.80783,-0.77395 h -14.12047 -14.12046 l -0.78971,0.7566 c -0.43435,0.41613 -0.85533,1.01802 -0.93553,1.33754 -0.20335,0.81023 -4.92409,53.86937 -4.92409,55.34476 0,1.47785 0.31682,2.10203 1.40595,2.76993 0.81846,0.50191 1.39182,0.51498 19.68865,0.44886 l 18.84565,-0.0681 z"
         id="path34" /><path
         style="fill:#ffffff;fill-opacity:1;stroke-width:4.38232"
         d="m 186.36472,224.92904 c 1.30372,-0.67418 1.36129,-1.11027 1.36129,-10.31156 0,-8.80814 -0.11899,-9.97536 -1.06877,-10.48366 -0.30901,-0.16538 -13.76767,-0.259 -37.2323,-0.259 h -36.74836 l -0.64143,0.68238 -0.64144,0.68238 -0.0839,8.64418 c -0.0916,9.4299 0.0109,10.35623 1.21803,11.01142 1.06453,0.57778 72.72156,0.61064 73.83693,0.0339 z"
         id="path33" /><path
         style="fill:#ffffff;fill-opacity:1;stroke-width:4.38232"
         d="m 180.07344,314.75559 c 0.50847,-0.50847 0.7734,-1.04325 0.7734,-1.56117 v -0.78778 l 2.4474,-0.1108 c 1.93491,-0.0876 2.5028,-0.0303 2.71198,0.2737 1.47531,2.14399 2.25686,2.36276 4.21521,1.17987 1.64601,-0.99423 1.96796,-1.85032 1.229,-3.26804 l -0.56834,-1.09039 1.00905,-1.09818 c 0.55498,-0.604 1.18522,-1.35136 1.40053,-1.6608 0.36187,-0.52005 0.49528,-0.54135 1.76373,-0.28151 1.95307,0.40008 2.58565,0.053 3.10785,-1.70548 0.22587,-0.76059 0.41068,-1.63819 0.41068,-1.95021 0,-0.74802 -0.97293,-1.61467 -2.07451,-1.84791 -0.65311,-0.13829 -0.85075,-0.30117 -0.75699,-0.62388 0.0698,-0.2402 0.28465,-1.00523 0.47749,-1.70007 0.21809,-0.78584 0.47211,-1.21673 0.67206,-1.14 0.1768,0.0679 0.72006,0.19813 1.20725,0.28953 1.60921,0.30189 2.85012,-1.32057 2.85447,-3.73216 0.002,-0.97421 -0.63404,-1.62332 -1.82293,-1.8611 -0.62764,-0.12553 -0.82975,-0.28906 -0.73963,-0.59845 0.0682,-0.23415 0.28201,-0.99509 0.47512,-1.69097 0.34005,-1.22537 0.37641,-1.25943 1.15387,-1.08088 1.843,0.42327 2.56884,-0.0749 3.18188,-2.18365 0.37515,-1.29047 0.37496,-1.49612 -0.002,-2.22526 -0.27446,-0.53074 -0.68282,-0.85686 -1.20331,-0.96095 -0.43332,-0.0867 -0.84273,-0.24636 -0.90979,-0.35487 -0.0671,-0.1085 0.0977,-0.83727 0.36623,-1.61947 l 0.48816,-1.42218 1.08924,0.0834 c 1.41322,0.10823 2.22356,-0.66419 2.67618,-2.55092 0.28944,-1.2065 0.27533,-1.46229 -0.11337,-2.05551 -0.24416,-0.37265 -0.79231,-0.79898 -1.21809,-0.94741 -0.42579,-0.14843 -0.76998,-0.34753 -0.76487,-0.44243 0.005,-0.0949 0.2006,-0.94646 0.43442,-1.89235 0.34944,-1.4136 0.44541,-3.88457 0.53905,-13.87879 0.12321,-13.14936 0.0858,-13.60769 -1.26456,-15.47174 -0.40431,-0.55812 -4.03074,-3.58852 -8.05873,-6.73421 l -7.32364,-5.71943 h -7.87823 c -6.65011,0 -7.92914,0.0613 -8.20481,0.39351 -0.17962,0.21643 -0.26489,0.55425 -0.1895,0.75071 0.0754,0.19646 1.96394,1.77144 4.19678,3.49995 4.8434,3.74941 5.32795,4.2388 6.40439,6.46833 l 0.83033,1.7198 0.0756,13.1899 c 0.0632,11.02212 0.007,13.58773 -0.33911,15.61042 -0.22809,1.33128 -2.97078,10.84134 -6.09486,21.13346 -3.12409,10.29212 -5.68016,18.83485 -5.68016,18.98385 0,0.16074 0.80696,0.27091 1.98437,0.27091 h 1.98438 v 0.87547 c 0,1.52623 0.98426,2.27881 2.99691,2.29148 1.06464,0.007 1.4058,-0.12063 2.05052,-0.76535 z"
         id="path32" /><path
         style="fill:#ffffff;fill-opacity:1;stroke-width:4.38232"
         d="m 123.47161,314.75259 c 0.2694,-0.3327 0.48981,-1.00843 0.48981,-1.50163 v -0.89673 h 3.43959 3.43958 l -0.002,-0.7276 c -0.001,-0.40019 -0.5524,-9.24058 -1.22508,-19.64532 -1.04764,-16.20467 -1.24096,-20.57579 -1.34804,-30.4793 -0.1783,-16.49229 0.10132,-19.09527 2.86022,-26.6254 1.14278,-3.11909 1.3152,-3.81216 1.03298,-4.15222 -0.29684,-0.35766 -1.63593,-0.39894 -10.81643,-0.33345 l -10.47765,0.0747 -7.21288,5.64397 c -3.967086,3.10418 -7.506856,6.02938 -7.866166,6.50046 -1.41784,1.85889 -1.45754,2.24467 -1.45585,14.14874 10e-4,10.5181 0.18393,13.78914 0.93629,16.78677 0.13549,0.53983 0.0342,0.68692 -0.63327,0.9196 -0.43701,0.15234 -0.99769,0.58699 -1.24595,0.96589 -0.42047,0.64172 -0.42213,0.79264 -0.0243,2.20341 0.55085,1.95318 1.24123,2.54722 2.7241,2.34397 l 1.1032,-0.15121 0.35029,1.38066 c 0.46279,1.82406 0.4904,1.71401 -0.56245,2.24148 -1.33226,0.66746 -1.61199,1.39228 -1.17566,3.04633 0.55493,2.10364 1.3209,2.63687 3.17611,2.21104 0.80758,-0.18537 0.81673,-0.17512 1.256766,1.40761 0.2438,0.87689 0.44327,1.64242 0.44327,1.70118 0,0.0588 -0.41762,0.18519 -0.928046,0.28094 -1.4479,0.27163 -1.89122,1.16055 -1.5069,3.02161 0.49185,2.38182 1.70199,3.09021 3.862636,2.26109 0.21823,-0.0837 0.48345,0.41823 0.77496,1.46673 0.24375,0.87672 0.44318,1.64997 0.44318,1.71834 0,0.0684 -0.41881,0.20286 -0.93068,0.29889 -0.97228,0.1824 -1.97974,1.17662 -1.97974,1.95371 0,0.245 0.18481,1.06777 0.41068,1.82836 0.52448,1.76612 1.15662,2.11026 3.10986,1.69302 1.28363,-0.2742 1.40043,-0.25564 1.77113,0.28151 0.21828,0.31629 0.84758,1.06922 1.39844,1.67317 l 1.00157,1.0981 -0.59085,1.21614 -0.59085,1.21615 0.5402,0.72847 c 0.74895,1.00996 2.44538,1.93788 3.39186,1.85528 0.57921,-0.0505 0.99499,-0.36111 1.5875,-1.18576 0.59179,-0.82366 0.94182,-1.08536 1.33192,-0.9958 0.29104,0.0668 1.39237,0.1231 2.4474,0.12509 l 1.91823,0.004 v 0.8141 c 0,0.55418 0.25683,1.07094 0.80442,1.61853 0.75623,0.75623 0.90126,0.79742 2.42061,0.68752 1.27901,-0.0925 1.71836,-0.24309 2.10599,-0.72179 z"
         id="path31" /><path
         style="fill:#ffffff;fill-opacity:1;stroke-width:4.38232"
         d="m 156.91407,323.08188 c 0.35719,-0.35719 0.64944,-0.93761 0.64944,-1.28984 0,-1.63943 0.29126,-2.17686 1.53673,-2.83551 1.85037,-0.97855 4.34981,-3.45709 5.31792,-5.27345 0.844,-1.58349 11.58363,-36.32321 12.80272,-41.41323 0.53923,-2.25139 0.57068,-3.02333 0.57679,-14.15521 0.009,-15.59724 0.57462,-14.24117 -9.06277,-21.71107 -3.38735,-2.62552 -6.60204,-5.03562 -7.14375,-5.35578 -0.97097,-0.57385 -1.13624,-0.58211 -11.65724,-0.58211 H 139.2616 l -0.58594,0.68111 c -0.65228,0.75822 -3.11539,7.25455 -3.88287,10.24087 -0.95391,3.71174 -1.06738,5.91532 -0.98735,19.17447 l 0.0779,12.89853 -0.73963,-9e-5 c -0.44279,-6e-5 -1.0142,0.27448 -1.42376,0.68403 -0.62697,0.62697 -0.67199,0.81795 -0.53887,2.28603 0.17756,1.95809 0.78416,2.70409 2.16691,2.6649 0.88225,-0.025 0.93222,0.02 0.93222,0.84036 0,0.47672 0.0713,1.22338 0.15849,1.65924 0.14741,0.73703 0.0944,0.80448 -0.75742,0.96429 -0.94879,0.17799 -1.694,0.79604 -1.78979,1.48439 -0.0304,0.21828 -0.0411,0.96784 -0.0239,1.66567 0.0378,1.53057 0.88604,2.56767 2.10003,2.56767 0.71524,0 0.78174,0.087 0.93807,1.22755 0.27924,2.0373 0.23933,2.21203 -0.50523,2.21203 -0.37042,0 -0.96573,0.29224 -1.32292,0.64943 -0.53551,0.53551 -0.64943,0.91038 -0.64943,2.13702 0,1.2914 0.102,1.58959 0.7734,2.26099 0.43567,0.43567 1.05765,0.77339 1.42435,0.77339 0.72187,0 0.96756,0.54116 0.97364,2.14454 0.003,0.84414 -0.0923,0.98141 -0.82936,1.19281 -0.45813,0.13139 -1.06412,0.54849 -1.34663,0.92688 -0.43358,0.58073 -0.48396,0.92573 -0.32316,2.21277 0.21374,1.71072 0.70101,2.31116 2.04409,2.51884 0.84841,0.13119 0.8562,0.14607 0.93432,1.78593 0.0712,1.49442 0.0287,1.65365 -0.44139,1.65365 -1.5876,0 -2.20462,1.08274 -1.8354,3.22076 0.31877,1.84589 0.91616,2.46212 2.33207,2.40566 0.94838,-0.0378 1.10167,0.0617 1.98167,1.28659 0.52457,0.73017 1.53724,1.69029 2.25037,2.1336 1.16035,0.72131 1.28096,0.88427 1.14767,1.5507 -0.19196,0.95979 0.6475,1.83528 2.40235,2.50546 1.14218,0.4362 1.3532,0.44724 1.97309,0.10316 0.38177,-0.21191 0.92287,-0.88868 1.20244,-1.50394 l 0.50832,-1.11866 h 2.15784 2.15784 l -0.10736,0.73151 c -0.12882,0.87771 0.7269,2.0901 1.59334,2.25746 1.72083,0.33239 2.86805,0.18104 3.51248,-0.4634 z"
         id="path30" /></g></g></svg>
